<svg width="1323" height="1402" viewBox="0 0 1323 1402" fill="none" xmlns="http://www.w3.org/2000/svg">
<path d="M711.797 1097.76C712.223 1127.45 687.714 1151.88 657.055 1152.32C626.395 1152.76 601.196 1129.04 600.771 1099.35C600.345 1069.66 624.854 1045.24 655.513 1044.8C686.172 1044.36 711.371 1068.07 711.797 1097.76Z" fill="#684E0A"/>
<ellipse cx="721.297" cy="1116.94" rx="43.6955" ry="42.3161" transform="rotate(-0.821408 721.297 1116.94)" fill="#684E0A"/>
<ellipse cx="600.297" cy="1133.94" rx="43.6955" ry="42.3161" transform="rotate(-0.821408 600.297 1133.94)" fill="#684E0A"/>
<path d="M736.25 1071.86C736.502 1089.45 721.979 1103.93 703.81 1104.19C685.642 1104.45 670.709 1090.4 670.457 1072.8C670.204 1055.21 684.728 1040.73 702.897 1040.47C721.065 1040.21 735.998 1054.26 736.25 1071.86Z" fill="#684E0A"/>
<ellipse cx="666.353" cy="1035.33" rx="32.9002" ry="31.8615" transform="rotate(-0.821408 666.353 1035.33)" fill="#684E0A"/>
<g opacity="0.8">
<ellipse cx="704.352" cy="1010.44" rx="31.358" ry="30.368" transform="rotate(-0.821408 704.352 1010.44)" fill="#E7E7E7"/>
<ellipse cx="639.279" cy="1025.81" rx="55.519" ry="53.7663" transform="rotate(-0.821408 639.279 1025.81)" fill="#E7E7E7"/>
<ellipse cx="706.258" cy="1107.5" rx="55.519" ry="53.7663" transform="rotate(-0.821408 706.258 1107.5)" fill="#E7E7E7"/>
<ellipse cx="674.671" cy="973.133" rx="37.2209" ry="36.0458" transform="rotate(-0.821408 674.671 973.133)" fill="#E7E7E7"/>
<ellipse cx="768.918" cy="1102.19" rx="32.9002" ry="31.8615" transform="rotate(-0.821408 768.918 1102.19)" fill="#E7E7E7"/>
<ellipse cx="566.923" cy="1124.44" rx="32.9002" ry="31.8615" transform="rotate(-0.821408 566.923 1124.44)" fill="#E7E7E7"/>
<ellipse cx="664.429" cy="1159.52" rx="32.9002" ry="31.8615" transform="rotate(-0.821408 664.429 1159.52)" fill="#E7E7E7"/>
<ellipse cx="675.032" cy="937.668" rx="26.7314" ry="25.8875" transform="rotate(-0.821408 675.032 937.668)" fill="#E7E7E7"/>
<ellipse cx="712.433" cy="1072.06" rx="43.6955" ry="42.3161" transform="rotate(-0.821408 712.433 1072.06)" fill="#E7E7E7"/>
<path d="M682.479 1099.71C682.905 1129.4 658.395 1153.83 627.736 1154.27C597.077 1154.71 571.878 1131 571.452 1101.3C571.026 1071.61 595.536 1047.19 626.195 1046.75C656.854 1046.31 682.053 1070.02 682.479 1099.71Z" fill="#E7E7E7"/>
</g>
<path d="M665 812C641.024 739.5 566.083 623.5 549 599.5C531.917 575.5 420.499 430.5 411.999 383C403.5 335.5 424.999 248 451.5 208.5C476.034 171.931 644.5 46.5 604.5 6.49993C564.5 -33.5001 439.384 154.5 420 194C400.615 233.5 373.5 318 382.499 383C391.499 448 497.5 565.5 529.5 614C561.5 662.5 627.86 772 643 821C658.14 870 655.5 959.311 655.5 959.311H698C698 959.311 688.976 884.5 665 812Z" fill="url(#paint0_linear)"/>
<path fill-rule="evenodd" clip-rule="evenodd" d="M663.098 1130C919.403 1130 1152.02 1144.51 1323 1168.1V1363.9L1323 1402H664.008C663.705 1402 663.401 1402 663.098 1402C662.794 1402 662.491 1402 662.187 1402H0V1194.21H0.000488281V1168.54C171.273 1144.69 405.193 1130 663.098 1130Z" fill="#1E1E1E"/>
<circle cx="588.5" cy="835.5" r="4.5" fill="#C09E46" fill-opacity="0.2"/>
<circle cx="818" cy="1108" r="6" fill="#C09E46" fill-opacity="0.5"/>
<circle cx="788" cy="955" r="6" fill="#C09E46" fill-opacity="0.5"/>
<circle cx="494" cy="1061" r="6" fill="#C09E46" fill-opacity="0.5"/>
<circle cx="574" cy="971" r="6" fill="#C09E46" fill-opacity="0.5"/>
<circle cx="746.5" cy="769.5" r="8.5" fill="#C09E46" fill-opacity="0.48"/>
<defs>
<linearGradient id="paint0_linear" x1="534.999" y1="-185" x2="534.999" y2="551.5" gradientUnits="userSpaceOnUse">
<stop stop-color="#D2D2D2" stop-opacity="0.1"/>
<stop offset="1" stop-color="#E1E1E1"/>
</linearGradient>
</defs>
</svg>
