<svg width="100" height="108" viewBox="0 0 100 108" fill="none" xmlns="http://www.w3.org/2000/svg">
<path d="M71.3946 0.663915C68.9547 1.34386 66.275 2.58377 64.1751 4.00366C63.3352 4.58362 53.5559 14.2029 35.9372 31.7816C9.07926 58.5995 8.99927 58.6795 8.99927 59.4795C8.99927 59.9194 9.13926 60.4794 9.29924 60.6994C9.45923 60.9394 9.51923 61.1993 9.43923 61.2793C9.35924 61.3793 9.39924 61.3793 9.51923 61.3193C9.63922 61.2393 9.9192 61.3193 10.1192 61.4793C10.5991 61.8393 11.2791 61.8593 11.959 61.4993C12.259 61.3393 24.4181 49.2802 38.997 34.6813C61.0753 12.583 65.775 7.96337 67.1349 7.06343C68.0348 6.46348 68.8548 5.98351 68.9747 5.98351C69.0747 5.98351 69.4747 5.80353 69.8347 5.60354C70.1947 5.38356 70.8546 5.12358 71.2946 5.00359C75.6142 3.90367 75.4143 3.94366 77.9941 4.04366C80.6939 4.14365 82.3937 4.54362 84.8935 5.64353C87.1534 6.62347 90.1732 8.7433 90.0332 9.26327C89.9932 9.38326 90.0332 9.42325 90.1132 9.32326C90.3131 9.12328 91.2131 9.98321 91.0531 10.2432C90.9931 10.3632 91.0131 10.3832 91.1331 10.3232C91.3331 10.2032 91.853 10.8031 92.9129 12.423C93.9329 13.9829 95.3928 17.2227 95.3928 17.9026C95.3928 18.1226 95.5327 18.9625 95.7127 19.7825C96.2527 22.3223 95.8127 26.642 94.7728 29.2618C94.0729 30.9616 94.0729 30.9616 92.813 33.0815C92.553 33.5214 78.574 47.6404 61.7753 64.4791C40.6969 85.5975 31.1776 95.2568 31.0776 95.6368C30.8976 96.3967 31.3376 97.3566 32.0775 97.7966C32.7975 98.2366 33.3174 98.2566 33.9574 97.8966C34.2174 97.7566 48.0963 83.9776 64.8151 67.2589C90.1931 41.8808 95.3728 36.6212 96.2527 35.2813C98.0726 32.4815 98.9925 30.3417 99.5924 27.4219C100.132 24.8421 100.132 20.6224 99.6124 17.9826C99.0725 15.3228 97.9326 12.363 96.8526 10.8431C96.5927 10.5032 96.3927 10.1632 96.3927 10.1032C96.3927 10.0232 95.8127 9.28326 95.1128 8.42333C94.4128 7.58339 93.8329 6.78345 93.8129 6.68346C93.8129 6.56347 93.7129 6.48348 93.6329 6.48348C93.5329 6.48348 92.8929 5.98351 92.173 5.38356C89.2932 2.90375 86.6734 1.54385 82.7937 0.503923C81.0738 0.0239609 80.5539 -0.0160354 77.2941 0.00395972C73.8744 0.00395972 73.5744 0.0439622 71.3946 0.663915Z" fill="#CDB985"/>
<path d="M76.2942 7.88337C75.3943 8.02336 74.2944 8.32333 73.8344 8.56332C73.3944 8.7833 72.9145 8.98328 72.8145 8.98328C72.6945 8.98328 71.9945 9.38325 71.2546 9.86322C70.2347 10.5232 63.3952 17.2427 44.4366 36.2212C20.1984 60.4794 18.9985 61.7193 18.9985 62.3993C18.9985 63.3992 19.8385 64.1791 20.8984 64.1791C21.6783 64.1791 21.9783 63.8791 43.0967 42.7407L64.4951 21.2824L64.6151 22.8822C64.6751 23.7622 64.7951 24.7421 64.8751 25.0821C64.9951 25.662 64.3751 26.302 47.3964 43.2807L29.7977 60.8794V61.7993C29.7977 62.7792 30.0777 63.1992 30.9976 63.5392C31.3576 63.6792 31.6976 63.6592 32.0975 63.4792C32.4375 63.3392 40.2969 55.6198 49.5762 46.3205L66.455 29.4217L67.1549 30.4617C68.0548 31.7816 69.6547 33.4414 70.8346 34.2414L71.7746 34.8813L54.6758 52C38.737 67.9388 37.5571 69.1587 37.4571 69.8987C37.2972 71.0786 37.9171 71.7786 39.137 71.7786H40.0369L57.7356 54.0599C71.2346 40.5609 75.5143 36.3812 75.7543 36.4812C75.9542 36.5612 76.7542 36.6812 77.5741 36.7412L79.034 36.8412L57.8156 58.0596C38.5171 77.3581 36.5972 79.338 36.5972 79.9179C36.5972 81.3578 37.5371 82.1178 38.837 81.7578C39.317 81.6378 51.1961 69.8587 88.7533 32.3815C89.6532 31.4816 90.3932 30.6416 90.3932 30.5417C90.3932 30.4417 90.5531 30.1017 90.7731 29.8217C92.453 27.4419 93.2129 22.8222 92.513 19.1825C91.3731 13.263 86.4534 8.54332 80.6739 7.82337C78.574 7.54339 78.4141 7.54339 76.2942 7.88337Z" fill="#C09E46"/>
<path d="M5.89956 61.9993C5.67957 62.1193 4.25968 63.4592 2.75979 64.9591L0 67.6789V68.6588C0 70.0387 0.679949 70.7786 1.97985 70.7786C2.85978 70.7786 2.89978 70.7386 5.61958 68.0388C7.13946 66.5389 8.51936 65.0191 8.69934 64.6591C8.97932 64.0591 8.97932 63.9391 8.67935 63.2392C8.47936 62.8192 8.35937 62.3793 8.37937 62.2793C8.41937 62.1593 8.35937 62.1393 8.29937 62.2193C8.21938 62.2993 7.9594 62.2393 7.71942 62.0793C7.23945 61.7193 6.45951 61.6993 5.89956 61.9993Z" fill="#CDB985"/>
<path d="M26.6981 64.7191C26.4781 64.7791 26.1381 64.9591 25.9181 65.1591C25.7182 65.3391 25.4982 65.479 25.4182 65.479C25.3582 65.479 25.3182 65.539 25.3382 65.599C25.3982 65.759 24.5982 66.499 24.4182 66.459C24.3583 66.439 24.3183 66.499 24.3383 66.579C24.3783 66.7389 23.6383 67.4789 23.4183 67.4789C23.3583 67.4789 23.3183 67.5389 23.3383 67.5989C23.3983 67.7589 22.7984 68.3188 22.4984 68.4188C22.3984 68.4588 22.3184 68.5388 22.3384 68.5988C22.3984 68.7588 21.7784 69.3388 21.4985 69.3787C21.3985 69.3987 21.3185 69.4987 21.3385 69.5787C21.3785 69.7387 20.6185 70.5187 20.4785 70.4187C20.4385 70.3987 20.3786 70.4387 20.3786 70.5187C20.3586 70.6187 20.1786 70.8986 19.9786 71.1586C19.3186 71.9786 19.6186 73.3384 20.5385 73.7584C21.6985 74.2784 21.8984 74.1584 25.4782 70.5787C28.8379 67.2589 28.8979 67.1789 28.8779 66.359C28.8379 65.1591 27.898 64.4591 26.6981 64.7191Z" fill="#CDB985"/>
<path d="M30.8577 85.8175C29.1778 87.4974 27.7179 89.1172 27.6179 89.4172C27.4779 89.7972 27.4779 90.1572 27.6179 90.5171C27.9779 91.4571 28.3979 91.777 29.2578 91.777C30.0377 91.777 30.1977 91.657 33.3375 88.4973C36.2973 85.5175 36.5973 85.1575 36.5973 84.5176C36.5973 84.1176 36.4173 83.5977 36.1773 83.2977C35.8373 82.8777 35.5973 82.7777 34.8374 82.7777H33.8975L30.8577 85.8175Z" fill="#CDB985"/>
<path d="M27.8979 98.5965C27.6779 98.7165 26.258 100.056 24.7581 101.556C21.7384 104.536 21.4184 105.076 22.1183 106.136C22.3183 106.436 22.4583 106.756 22.4383 106.836C22.4183 106.936 22.4783 106.956 22.5783 106.896C22.6783 106.816 22.8183 106.856 22.8983 106.976C23.0783 107.276 24.6581 107.216 25.1381 106.876C25.3781 106.716 26.738 105.396 28.1779 103.936L30.8177 101.276L30.7577 100.276C30.6977 99.3965 30.6177 99.2365 30.0177 98.8365C29.2778 98.3366 28.5378 98.2566 27.8979 98.5965Z" fill="#CDB985"/>
</svg>
