<svg width="30" height="31" viewBox="0 0 30 31" fill="none" xmlns="http://www.w3.org/2000/svg">
<path fill-rule="evenodd" clip-rule="evenodd" d="M16.433 7.05809L16.4425 7.05135L16.433 7.06073V7.05809ZM8.34291 8.28355C8.34244 8.28027 8.34197 8.277 8.34115 8.2738C8.34627 8.27625 8.34595 8.28141 8.34528 8.2867L8.3441 8.2908C8.34361 8.28841 8.34326 8.28598 8.34291 8.28355ZM20.2376 12.2876C20.2425 12.2784 20.2472 12.2694 20.2499 12.2634C20.2653 12.2291 20.2417 12.2848 20.2325 12.305L20.2266 12.3088C20.2297 12.3025 20.2337 12.2949 20.2376 12.2876ZM20.2266 12.3088C20.2228 12.3166 20.218 12.3252 20.2136 12.3338L20.2275 12.3167C20.2318 12.3064 20.2294 12.3118 20.2319 12.3062C20.2299 12.3073 20.2286 12.3077 20.2266 12.3088ZM20.1888 12.3821C20.2015 12.3696 20.2141 12.3571 20.2266 12.3443C20.2214 12.3521 20.2156 12.3601 20.2099 12.3681C20.2049 12.3751 20.1999 12.382 20.1953 12.3889L20.1882 12.383L20.1888 12.3821ZM19.6104 12.9392C19.615 12.9333 19.6196 12.9274 19.6241 12.9214C19.6193 12.9383 19.6142 12.9552 19.6061 12.9733L19.5981 12.9551C19.6022 12.9497 19.6063 12.9444 19.6104 12.9392ZM19.5248 13.2284C19.4998 13.2335 19.4752 13.2392 19.4522 13.2477C19.4276 13.2568 19.4656 13.2464 19.5248 13.2284ZM19.3514 13.2788C19.3514 13.2788 19.352 13.2786 19.3541 13.2779C19.3514 13.2803 19.3491 13.2825 19.3469 13.2848C19.3445 13.2872 19.342 13.2897 19.339 13.2923L19.3487 13.2797C19.3507 13.2791 19.3514 13.2788 19.3514 13.2788ZM16.7752 14.5068L16.7793 14.5021C16.7221 14.5901 16.7231 14.5887 16.7482 14.5492C16.7554 14.5378 16.7647 14.5233 16.7752 14.5068ZM16.7263 14.5575C16.7302 14.5535 16.7342 14.5495 16.7385 14.5449C16.7365 14.5481 16.7342 14.552 16.732 14.5559C16.7288 14.5614 16.7256 14.5668 16.7232 14.5699C16.7135 14.5818 16.6768 14.6103 16.6871 14.5989C16.7048 14.5793 16.7154 14.5686 16.7263 14.5575ZM18.9978 21.4006C18.9884 21.3959 18.9791 21.3911 18.9702 21.3855C18.9601 21.3792 18.9934 21.3947 19.0021 21.4028L18.9978 21.4006ZM19.237 21.6192C19.2309 21.6105 19.2261 21.6032 19.2199 21.594C19.2658 21.6509 19.2644 21.6494 19.2413 21.624L19.237 21.6192ZM20.5581 22.3013C20.5541 22.2955 20.5496 22.2901 20.5457 22.2843L20.5617 22.2989L20.5621 22.3023L20.5625 22.3057L20.5581 22.3013Z" fill="#CDB985"/>
<path fill-rule="evenodd" clip-rule="evenodd" d="M15.1403 0.663494C11.0862 0.625867 7.18945 2.2184 4.33777 5.07825C-1.48195 10.9147 -1.44044 20.3254 4.43055 26.1111C10.3016 31.8968 19.7848 31.8722 25.6252 26.056C31.4655 20.2398 31.4572 10.8289 25.6066 5.02284L25.5321 4.94953C22.7599 2.23664 19.0335 0.699681 15.1403 0.663494ZM18.4325 7.09856C18.4295 5.245 17.0011 3.79696 15.1725 3.79365C14.9184 3.79319 14.3523 3.96999 13.9144 4.18656C12.8828 4.69669 12.3546 5.46563 12.2603 6.59422L12.1909 7.4258L13.683 8.91214C14.5037 9.72964 15.2773 10.3985 15.4021 10.3985C15.5269 10.3985 16.2598 9.77487 17.031 9.01272C18.2709 7.78744 18.4332 7.56579 18.4325 7.09856ZM13.0017 9.09394C10.7916 6.78882 10.36 6.49674 9.16227 6.49569C7.2502 6.49401 5.99774 7.68225 5.99774 9.49771C5.99774 10.4267 6.2699 11.1128 6.90573 11.7872L7.29487 12.2H10.4887H13.6821L14.2639 11.6086L14.8457 11.0175L13.0017 9.09394ZM21.9146 6.67427C21.708 6.65943 21.5308 6.64384 21.3642 6.64201C20.1978 6.62922 19.553 7.29949 13.0182 13.7588C6.53487 20.1673 6.1537 20.5741 5.93747 21.3122C5.48777 22.8473 6.1141 24.2274 7.61664 25.0121C8.28225 25.3597 9.54228 25.3262 10.3078 24.9403C10.7173 24.7339 13.3571 22.2274 17.7 17.9217C24.2381 11.4395 24.4608 11.1997 24.6289 10.4665C25.0711 8.53713 23.8365 6.81222 21.9146 6.67427ZM12.6846 12.9897C12.6846 12.843 11.8964 12.8012 9.16729 12.8038C5.20545 12.8075 4.8553 12.8813 3.95306 13.901C2.60527 15.4244 3.16887 17.9252 5.04484 18.7457C5.29445 18.8548 5.80434 18.9468 6.17798 18.95L6.85728 18.9559L9.77095 16.0674C11.3734 14.4786 12.6846 13.0937 12.6846 12.9897ZM24.4256 12.9507H23.6695L20.7865 15.7656C19.201 17.3139 17.882 18.6988 17.8554 18.8433C17.8105 19.0871 18.05 19.1059 21.1836 19.1051C23.19 19.1047 24.8056 19.0367 25.1648 18.9377C25.9542 18.7203 26.9703 17.7119 27.1894 16.9286C27.4408 16.0301 27.3949 15.5104 26.987 14.6411C26.4954 13.5931 25.5219 12.9507 24.4256 12.9507ZM19.9627 19.7065H16.6744L16.2681 20.1276C16.0445 20.3592 15.8617 20.6801 15.8618 20.8407C15.8622 21.1958 19.5928 24.9562 20.2035 25.2171C20.7806 25.4636 22.1189 25.4567 22.7118 25.2042C24.5691 24.4133 25.1254 21.8799 23.7832 20.3238L23.2508 19.7065H19.9627ZM16.8091 22.9229C15.9991 22.0621 15.2688 21.358 15.1858 21.358C15.1028 21.358 14.3699 22.0153 13.5571 22.8188C12.4663 23.8973 12.0798 24.3788 12.0804 24.6579C12.0831 25.8743 13.0034 27.1952 14.1218 27.5878C15.0039 27.8975 15.6836 27.8579 16.5787 27.4444C17.5547 26.9935 18.2821 25.9796 18.2821 25.0705C18.2821 24.5411 18.1478 24.3455 16.8091 22.9229Z" fill="#CDB985"/>
</svg>
