<svg width="30" height="32" viewBox="0 0 30 32" fill="none" xmlns="http://www.w3.org/2000/svg">
<path d="M15.1403 0.0477537C11.0862 0.0076054 7.18945 1.70688 4.33777 4.75843C-1.48195 10.9861 -1.44044 21.0276 4.43055 27.2011C10.3016 33.3746 19.7848 33.3483 25.6252 27.1423C31.4655 20.9362 31.4572 10.8945 25.6066 4.6993L25.5321 4.62108C22.76 1.72635 19.0335 0.0863671 15.1403 0.0477537ZM15.1725 3.38772C17.0011 3.39125 18.4295 4.93635 18.4325 6.91415C18.4332 7.4127 18.2709 7.64921 17.031 8.95661C16.2598 9.76986 15.5269 10.4353 15.4021 10.4353C15.2773 10.4353 14.5037 9.72159 13.683 8.8493L12.1909 7.26332L12.2603 6.376C12.3546 5.17177 12.8828 4.35129 13.9144 3.80697C14.3523 3.57588 14.9184 3.38722 15.1725 3.38772ZM14.266 5.82253C14.2661 5.82651 14.2651 5.83019 14.2657 5.83441C14.2658 5.83041 14.2659 5.82658 14.266 5.82253ZM9.16227 6.27088C10.36 6.272 10.7916 6.58365 13.0017 9.04328L14.8457 11.0958L14.2639 11.7265L13.6821 12.3576H10.4887H7.29487L6.90573 11.9171C6.26991 11.1974 5.99774 10.4654 5.99774 9.47411C5.99774 7.53697 7.2502 6.26908 9.16227 6.27088ZM21.3642 6.427C21.5308 6.42895 21.708 6.4456 21.9146 6.46142C23.8365 6.60862 25.0711 8.44915 24.6289 10.5079C24.4608 11.2902 24.2381 11.5461 17.7 18.4628C13.3571 23.0571 10.7173 25.7315 10.3078 25.9518C9.54228 26.3636 8.28225 26.3994 7.61664 26.0284C6.1141 25.1911 5.48777 23.7186 5.93747 22.0806C6.1537 21.2929 6.53487 20.8589 13.0182 14.0208C19.553 7.12855 20.1978 6.41335 21.3642 6.427ZM16.4425 6.86378C16.4417 6.86432 16.4342 6.87001 16.433 6.87098C16.4329 6.87191 16.4331 6.87286 16.433 6.87379C16.433 6.87372 16.4428 6.86348 16.4425 6.86378ZM8.34115 8.16816C8.34258 8.17411 8.34294 8.1803 8.3441 8.18631C8.34463 8.18492 8.34474 8.1833 8.34528 8.18193C8.34595 8.17629 8.34627 8.17078 8.34115 8.16816ZM20.2499 12.4252C20.2451 12.4367 20.2337 12.4583 20.2266 12.4737C20.2286 12.4724 20.2305 12.4709 20.2325 12.4696C20.2417 12.448 20.2653 12.3886 20.2499 12.4252ZM20.2319 12.4708C20.2299 12.4721 20.2283 12.4731 20.2263 12.4743C20.2225 12.4826 20.218 12.4911 20.2136 12.5003C20.2183 12.4943 20.2228 12.4882 20.2275 12.4821C20.2318 12.471 20.2294 12.4769 20.2319 12.4708ZM20.2266 12.5115C20.2141 12.5252 20.2015 12.5385 20.1888 12.5519C20.1886 12.5522 20.1883 12.5525 20.1882 12.5528C20.1905 12.5549 20.1929 12.557 20.1953 12.5591C20.2053 12.5434 20.2168 12.5271 20.2266 12.5115ZM9.16729 13.0018C11.8964 12.9991 12.6846 13.0436 12.6846 13.2002C12.6846 13.3111 11.3734 14.7889 9.77095 16.4841L6.85728 19.5663L6.17798 19.56C5.80434 19.5566 5.29446 19.4584 5.04484 19.3419C3.16887 18.4664 2.60527 15.798 3.95306 14.1726C4.8553 13.0845 5.20545 13.0058 9.16729 13.0018ZM19.6241 13.1273C19.6156 13.1394 19.6067 13.1512 19.5981 13.1632C19.6007 13.1697 19.6035 13.1762 19.6061 13.1826C19.6142 13.1633 19.6193 13.1453 19.6241 13.1273ZM23.6695 13.1586H24.4256C25.5219 13.1586 26.4954 13.844 26.987 14.9623C27.3949 15.8899 27.4408 16.4443 27.1894 17.403C26.9703 18.2389 25.9542 19.3148 25.1648 19.5469C24.8056 19.6525 23.19 19.725 21.1836 19.7255C18.05 19.7263 17.8105 19.7063 17.8554 19.4461C17.882 19.2919 19.201 17.8142 20.7865 16.1622L23.6695 13.1586ZM19.5248 13.4548C19.4998 13.4603 19.4752 13.4664 19.4522 13.4755C19.4276 13.4852 19.4656 13.4741 19.5248 13.4548ZM19.3541 13.5077C19.35 13.5091 19.3527 13.5083 19.3487 13.5096L19.339 13.5231C19.3448 13.5177 19.3484 13.513 19.3541 13.5077ZM16.7793 14.814C16.7784 14.815 16.7762 14.818 16.7752 14.819C16.7284 14.8975 16.7057 14.9349 16.7793 14.814ZM16.7385 14.8597C16.7221 14.8778 16.7112 14.8888 16.6871 14.9172C16.6768 14.9294 16.7135 14.899 16.7232 14.8863C16.7273 14.8808 16.7336 14.8677 16.7385 14.8597ZM16.6744 20.3672H19.9627H23.2508L23.7832 21.0258C25.1254 22.6862 24.5691 25.3895 22.7118 26.2334C22.1189 26.5028 20.7806 26.5102 20.2035 26.2471C19.5928 25.9688 15.8622 21.9563 15.8618 21.5774C15.8617 21.4061 16.0445 21.0636 16.2681 20.8165L16.6744 20.3672ZM15.1858 22.1294C15.2688 22.1294 15.9991 22.8807 16.8091 23.7992C18.1478 25.3172 18.2821 25.5259 18.2821 26.0907C18.2821 27.0608 17.5547 28.1426 16.5787 28.6238C15.6836 29.065 15.0039 29.1072 14.1218 28.7768C13.0034 28.3578 12.0831 26.9484 12.0804 25.6505C12.0798 25.3526 12.4663 24.8388 13.5571 23.6881C14.3699 22.8307 15.1028 22.1294 15.1858 22.1294ZM18.9702 22.1588C18.9804 22.1656 18.9913 22.1713 19.0021 22.1772C19.002 22.1771 19.002 22.1768 19.0019 22.1766C18.9931 22.1679 18.9601 22.152 18.9702 22.1588ZM19.2199 22.3812C19.2261 22.391 19.2309 22.3988 19.237 22.4081C19.2641 22.4399 19.2685 22.4455 19.2199 22.3812ZM20.5457 23.1177C20.5496 23.124 20.5541 23.1298 20.5581 23.1359C20.5596 23.1375 20.5611 23.139 20.5625 23.1406C20.5621 23.1382 20.5621 23.1358 20.5617 23.1334C20.5576 23.1295 20.5545 23.1264 20.5457 23.1177ZM7.97417 23.2166C7.97343 23.2174 7.96445 23.2213 7.96708 23.2207C7.97099 23.2197 7.97301 23.2188 7.97683 23.2179C7.97592 23.2174 7.97508 23.2171 7.97417 23.2166Z" fill="#1E1E1E"/>
</svg>
