<svg viewBox="0 0 444 1271" fill="none" xmlns="http://www.w3.org/2000/svg">
<path d="M331.797 1097.76C332.223 1127.45 307.714 1151.88 277.055 1152.32C246.395 1152.76 221.196 1129.04 220.771 1099.35C220.345 1069.66 244.854 1045.24 275.513 1044.8C306.172 1044.36 331.371 1068.07 331.797 1097.76Z" fill="#684E0A"/>
<ellipse cx="341.297" cy="1116.94" rx="43.6955" ry="42.3161" transform="rotate(-0.821408 341.297 1116.94)" fill="#684E0A"/>
<ellipse cx="220.297" cy="1133.94" rx="43.6955" ry="42.3161" transform="rotate(-0.821408 220.297 1133.94)" fill="#684E0A"/>
<ellipse cx="265.298" cy="1166.94" rx="43.6955" ry="42.3161" transform="rotate(-0.821408 265.298 1166.94)" fill="#684E0A"/>
<ellipse cx="379.298" cy="1165.94" rx="43.6955" ry="42.3161" transform="rotate(-0.821408 379.298 1165.94)" fill="#684E0A"/>
<ellipse cx="202.298" cy="1188.94" rx="43.6955" ry="42.3161" transform="rotate(-0.821408 202.298 1188.94)" fill="#684E0A"/>
<ellipse cx="332.541" cy="1189.46" rx="55.772" ry="54.0113" transform="rotate(-0.821408 332.541 1189.46)" fill="#684E0A"/>
<ellipse cx="264.541" cy="1198.81" rx="55.772" ry="54.0113" transform="rotate(-0.821408 264.541 1198.81)" fill="#684E0A"/>
<path d="M356.25 1071.86C356.502 1089.45 341.979 1103.93 323.81 1104.19C305.642 1104.45 290.709 1090.4 290.457 1072.8C290.204 1055.21 304.728 1040.73 322.897 1040.47C341.065 1040.21 355.998 1054.26 356.25 1071.86Z" fill="#684E0A"/>
<ellipse cx="286.353" cy="1035.33" rx="32.9002" ry="31.8615" transform="rotate(-0.821408 286.353 1035.33)" fill="#684E0A"/>
<g opacity="0.8">
<ellipse cx="324.352" cy="1010.44" rx="31.358" ry="30.368" transform="rotate(-0.821408 324.352 1010.44)" fill="#E7E7E7"/>
<ellipse cx="259.279" cy="1025.81" rx="55.519" ry="53.7663" transform="rotate(-0.821408 259.279 1025.81)" fill="#E7E7E7"/>
<ellipse cx="326.258" cy="1107.5" rx="55.519" ry="53.7663" transform="rotate(-0.821408 326.258 1107.5)" fill="#E7E7E7"/>
<ellipse cx="294.671" cy="973.133" rx="37.2209" ry="36.0458" transform="rotate(-0.821408 294.671 973.133)" fill="#E7E7E7"/>
<ellipse cx="388.918" cy="1102.19" rx="32.9002" ry="31.8615" transform="rotate(-0.821408 388.918 1102.19)" fill="#E7E7E7"/>
<ellipse cx="186.923" cy="1124.44" rx="32.9002" ry="31.8615" transform="rotate(-0.821408 186.923 1124.44)" fill="#E7E7E7"/>
<ellipse cx="284.429" cy="1159.52" rx="32.9002" ry="31.8615" transform="rotate(-0.821408 284.429 1159.52)" fill="#E7E7E7"/>
<ellipse cx="204.456" cy="1186.57" rx="60.6207" ry="58.7069" transform="rotate(-0.821408 204.456 1186.57)" fill="#E7E7E7"/>
<ellipse cx="264.456" cy="1210.57" rx="60.6207" ry="58.7069" transform="rotate(-0.821408 264.456 1210.57)" fill="#E7E7E7"/>
<ellipse cx="340.456" cy="1196.57" rx="60.6207" ry="58.7069" transform="rotate(-0.821408 340.456 1196.57)" fill="#E7E7E7"/>
<ellipse cx="374.456" cy="1164.57" rx="60.6207" ry="58.7069" transform="rotate(-0.821408 374.456 1164.57)" fill="#E7E7E7"/>
<ellipse cx="295.032" cy="937.668" rx="26.7314" ry="25.8875" transform="rotate(-0.821408 295.032 937.668)" fill="#E7E7E7"/>
<ellipse cx="332.433" cy="1072.06" rx="43.6955" ry="42.3161" transform="rotate(-0.821408 332.433 1072.06)" fill="#E7E7E7"/>
<path d="M302.479 1099.71C302.905 1129.4 278.395 1153.83 247.736 1154.27C217.077 1154.71 191.878 1131 191.452 1101.3C191.026 1071.61 215.536 1047.19 246.195 1046.75C276.854 1046.31 302.053 1070.02 302.479 1099.71Z" fill="#E7E7E7"/>
</g>
<path d="M285 812C261.024 739.5 186.083 623.5 169 599.5C151.917 575.5 40.499 430.5 31.9995 383C23.5 335.5 44.9994 248 71.5 208.5C96.0341 171.931 264.5 46.5 224.5 6.49993C184.5 -33.5001 59.3844 154.5 39.9998 194C20.6152 233.5 -6.50025 318 2.49938 383C11.499 448 117.5 565.5 149.5 614C181.5 662.5 247.86 772 263 821C278.14 870 275.5 959.311 275.5 959.311H318C318 959.311 308.976 884.5 285 812Z" fill="url(#paint0_linear)"/>
<circle cx="208.5" cy="835.5" r="4.5" fill="#C09E46" fill-opacity="0.2"/>
<circle cx="438" cy="1108" r="6" fill="#C09E46" fill-opacity="0.5"/>
<circle cx="408" cy="955" r="6" fill="#C09E46" fill-opacity="0.5"/>
<circle cx="114" cy="1061" r="6" fill="#C09E46" fill-opacity="0.5"/>
<circle cx="194" cy="971" r="6" fill="#C09E46" fill-opacity="0.5"/>
<circle cx="366.5" cy="769.5" r="8.5" fill="#C09E46" fill-opacity="0.48"/>
<defs>
<linearGradient id="paint0_linear" x1="154.999" y1="-185" x2="154.999" y2="551.5" gradientUnits="userSpaceOnUse">
<stop stop-color="#D2D2D2" stop-opacity="0.1"/>
<stop offset="1" stop-color="#E1E1E1"/>
</linearGradient>
</defs>
</svg>
